<svg xmlns="http://www.w3.org/2000/svg" width="207" height="37" viewBox="0 0 207 37" fill="none">
  <path d="M46.3464 12.2079L52.2403 30.1675H52.4665L58.3723 12.2079H64.0877L55.6814 35.8463H49.0373L40.6191 12.2079H46.3464Z" fill="white"/>
  <path d="M70.1126 36.181C68.9457 36.181 67.9058 35.9848 66.993 35.5923C66.0801 35.1922 65.3577 34.6035 64.8259 33.8264C64.302 33.0415 64.04 32.0643 64.04 30.8947C64.04 29.9097 64.2266 29.0826 64.5997 28.4131C64.9727 27.7437 65.4808 27.205 66.1238 26.7972C66.7667 26.3894 67.497 26.0816 68.3146 25.8738C69.1402 25.6661 70.0054 25.5199 70.9103 25.4352C71.974 25.3275 72.8313 25.2275 73.4822 25.1351C74.1331 25.0351 74.6054 24.8889 74.8991 24.6965C75.1929 24.5042 75.3397 24.2195 75.3397 23.8424V23.7732C75.3397 23.0422 75.1016 22.4766 74.6253 22.0765C74.1569 21.6764 73.4902 21.4763 72.6249 21.4763C71.7121 21.4763 70.9857 21.6725 70.446 22.0649C69.9062 22.4497 69.549 22.9344 69.3743 23.5192L64.683 23.1499C64.9212 22.0726 65.3895 21.1416 66.088 20.3567C66.7866 19.5641 67.6875 18.9563 68.7909 18.533C69.9022 18.1021 71.1882 17.8867 72.6487 17.8867C73.6648 17.8867 74.6372 18.0021 75.5659 18.2329C76.5026 18.4638 77.3321 18.8216 78.0545 19.3064C78.7848 19.7911 79.3603 20.4144 79.781 21.1762C80.2017 21.9303 80.412 22.8344 80.412 23.8886V35.8463H75.6017V33.3878H75.4588C75.1651 33.9418 74.7721 34.4304 74.28 34.8536C73.7878 35.2691 73.1965 35.5962 72.5059 35.8347C71.8153 36.0656 71.0175 36.181 70.1126 36.181ZM71.5652 32.7876C72.3114 32.7876 72.9702 32.6452 73.5418 32.3605C74.1133 32.0681 74.5618 31.6757 74.8872 31.1832C75.2127 30.6908 75.3754 30.1329 75.3754 29.5096V27.6282C75.2167 27.7283 74.9984 27.8206 74.7205 27.9053C74.4507 27.9822 74.145 28.0553 73.8037 28.1246C73.4624 28.1861 73.121 28.2438 72.7797 28.2977C72.4384 28.3439 72.1288 28.3862 71.851 28.4247C71.2556 28.5093 70.7357 28.644 70.2912 28.8286C69.8466 29.0133 69.5013 29.2634 69.2553 29.5789C69.0092 29.8867 68.8862 30.2714 68.8862 30.7331C68.8862 31.4025 69.1362 31.9142 69.6363 32.2682C70.1443 32.6145 70.7873 32.7876 71.5652 32.7876Z" fill="white"/>
  <path d="M89.4196 12.2079V35.8463H84.3473V12.2079H89.4196Z" fill="white"/>
  <path d="M98.5552 12.2079V35.8463H93.4829V12.2079H98.5552Z" fill="white"/>
  <path d="M110.953 36.1925C109.072 36.1925 107.453 35.8232 106.095 35.0845C104.746 34.3381 103.706 33.2839 102.976 31.9219C102.245 30.5523 101.88 28.9325 101.88 27.0627C101.88 25.239 102.245 23.6385 102.976 22.2612C103.706 20.8838 104.734 19.8104 106.06 19.0409C107.393 18.2714 108.957 17.8867 110.751 17.8867C111.957 17.8867 113.081 18.0752 114.121 18.4522C115.168 18.8216 116.081 19.3795 116.859 20.1259C117.645 20.8722 118.256 21.811 118.693 22.9421C119.129 24.0656 119.348 25.3814 119.348 26.8896V28.24H103.904V25.1929H114.573C114.573 24.4849 114.414 23.8578 114.097 23.3115C113.779 22.7652 113.339 22.3381 112.775 22.0303C112.219 21.7148 111.572 21.5571 110.834 21.5571C110.064 21.5571 109.382 21.7302 108.786 22.0765C108.199 22.415 107.738 22.8729 107.405 23.45C107.072 24.0194 106.901 24.6542 106.893 25.3544V28.2515C106.893 29.1287 107.06 29.8867 107.393 30.5253C107.734 31.164 108.215 31.6565 108.834 32.0027C109.453 32.349 110.187 32.5221 111.037 32.5221C111.6 32.5221 112.116 32.4452 112.585 32.2913C113.053 32.1374 113.454 31.9065 113.787 31.5987C114.121 31.291 114.375 30.9139 114.549 30.4676L119.24 30.7677C119.002 31.8604 118.514 32.8145 117.776 33.6302C117.046 34.4381 116.101 35.0691 114.942 35.5231C113.791 35.9694 112.461 36.1925 110.953 36.1925Z" fill="white"/>
  <path d="M127.73 25.5968V35.8463H122.658V18.1175H127.492V21.2454H127.706C128.111 20.2143 128.79 19.3987 129.742 18.7985C130.695 18.1906 131.85 17.8867 133.207 17.8867C134.477 17.8867 135.585 18.156 136.529 18.6946C137.474 19.2333 138.208 20.0027 138.732 21.0031C139.256 21.9957 139.518 23.1807 139.518 24.558V35.8463H134.446V25.4352C134.454 24.3503 134.168 23.5039 133.588 22.896C133.009 22.2804 132.211 21.9726 131.195 21.9726C130.512 21.9726 129.909 22.115 129.385 22.3997C128.869 22.6844 128.464 23.0999 128.171 23.6462C127.885 24.1848 127.738 24.8351 127.73 25.5968Z" fill="white"/>
  <path d="M159.781 19.8488C159.614 19.2871 159.38 18.7908 159.078 18.3599C158.776 17.9213 158.407 17.552 157.971 17.2519C157.542 16.9441 157.05 16.7094 156.494 16.5478C155.947 16.3862 155.339 16.3054 154.672 16.3054C153.426 16.3054 152.331 16.6055 151.386 17.2057C150.45 17.8059 149.719 18.6792 149.195 19.8258C148.671 20.9646 148.409 22.3573 148.409 24.004C148.409 25.6507 148.667 27.0511 149.183 28.2054C149.699 29.3596 150.43 30.2406 151.374 30.8485C152.319 31.4487 153.434 31.7488 154.72 31.7488C155.887 31.7488 156.883 31.5487 157.709 31.1486C158.542 30.7408 159.177 30.1675 159.614 29.4288C160.058 28.6901 160.281 27.8168 160.281 26.8088L161.328 26.9588H155.042V23.1961H165.246V26.1739C165.246 28.2515 164.793 30.0367 163.888 31.5295C162.984 33.0146 161.737 34.1611 160.15 34.9691C158.562 35.7693 156.744 36.1694 154.696 36.1694C152.41 36.1694 150.402 35.6808 148.671 34.7036C146.941 33.7187 145.591 32.3221 144.623 30.5138C143.663 28.6978 143.182 26.5433 143.182 24.0502C143.182 22.1342 143.468 20.426 144.04 18.9255C144.619 17.4173 145.429 16.14 146.469 15.0935C147.508 14.047 148.719 13.2506 150.1 12.7043C151.481 12.1579 152.978 11.8848 154.589 11.8848C155.97 11.8848 157.256 12.081 158.447 12.4734C159.638 12.8582 160.693 13.4045 161.614 14.1124C162.543 14.8203 163.301 15.6629 163.888 16.6401C164.476 17.6097 164.853 18.6792 165.02 19.8488H159.781Z" fill="white"/>
  <path d="M177.358 36.1925C175.477 36.1925 173.858 35.8232 172.5 35.0845C171.151 34.3381 170.111 33.2839 169.381 31.9219C168.65 30.5523 168.285 28.9325 168.285 27.0627C168.285 25.239 168.65 23.6385 169.381 22.2612C170.111 20.8838 171.139 19.8104 172.464 19.0409C173.798 18.2714 175.362 17.8867 177.156 17.8867C178.362 17.8867 179.486 18.0752 180.525 18.4522C181.573 18.8216 182.486 19.3795 183.264 20.1259C184.05 20.8722 184.661 21.811 185.098 22.9421C185.534 24.0656 185.753 25.3814 185.753 26.8896V28.24H170.309V25.1929H180.978C180.978 24.4849 180.819 23.8578 180.502 23.3115C180.184 22.7652 179.743 22.3381 179.18 22.0303C178.624 21.7148 177.977 21.5571 177.239 21.5571C176.469 21.5571 175.786 21.7302 175.191 22.0765C174.604 22.415 174.143 22.8729 173.81 23.45C173.476 24.0194 173.306 24.6542 173.298 25.3544V28.2515C173.298 29.1287 173.465 29.8867 173.798 30.5253C174.139 31.164 174.62 31.6565 175.239 32.0027C175.858 32.349 176.592 32.5221 177.441 32.5221C178.005 32.5221 178.521 32.4452 178.989 32.2913C179.458 32.1374 179.859 31.9065 180.192 31.5987C180.525 31.291 180.779 30.9139 180.954 30.4676L185.645 30.7677C185.407 31.8604 184.919 32.8145 184.181 33.6302C183.451 34.4381 182.506 35.0691 181.347 35.5231C180.196 35.9694 178.866 36.1925 177.358 36.1925Z" fill="white"/>
  <path d="M197.326 36.1925C195.477 36.1925 193.877 35.8116 192.528 35.0498C191.186 34.2804 190.15 33.2108 189.42 31.8411C188.69 30.4638 188.324 28.8671 188.324 27.0511C188.324 25.2198 188.69 23.6193 189.42 22.2496C190.15 20.8722 191.186 19.8027 192.528 19.0409C193.877 18.2714 195.477 17.8867 197.326 17.8867C199.176 17.8867 200.771 18.2714 202.113 19.0409C203.462 19.8027 204.502 20.8722 205.232 22.2496C205.963 23.6193 206.328 25.2198 206.328 27.0511C206.328 28.8671 205.963 30.4638 205.232 31.8411C204.502 33.2108 203.462 34.2804 202.113 35.0498C200.771 35.8116 199.176 36.1925 197.326 36.1925ZM197.35 32.3836C198.191 32.3836 198.894 32.1528 199.457 31.6911C200.021 31.2217 200.446 30.583 200.731 29.7751C201.025 28.9671 201.172 28.0476 201.172 27.0165C201.172 25.9854 201.025 25.0659 200.731 24.2579C200.446 23.45 200.021 22.8113 199.457 22.3419C198.894 21.8726 198.191 21.6379 197.35 21.6379C196.5 21.6379 195.786 21.8726 195.207 22.3419C194.635 22.8113 194.202 23.45 193.909 24.2579C193.623 25.0659 193.48 25.9854 193.48 27.0165C193.48 28.0476 193.623 28.9671 193.909 29.7751C194.202 30.583 194.635 31.2217 195.207 31.6911C195.786 32.1528 196.5 32.3836 197.35 32.3836Z" fill="white"/>
  <mask id="mask0_812_11882" style="mask-type:alpha" maskUnits="userSpaceOnUse" x="0" y="0" width="33" height="36">
    <rect y="0.326172" width="32.4273" height="35.5203" fill="#D9D9D9"/>
  </mask>
  <g mask="url(#mask0_812_11882)">
    <mask id="mask1_812_11882" style="mask-type:alpha" maskUnits="userSpaceOnUse" x="0" y="-2" width="33" height="24">
      <path d="M32.4274 21.5117V12.2073L16.2137 0.325248L0.77832 -1.68652L32.4274 21.5117Z" fill="#6A68F0"/>
    </mask>
    <g mask="url(#mask1_812_11882)">
      <path d="M0.000976562 12.2072L16.2146 0.325195L32.4283 12.2072V35.8455H0.000976562V12.2072Z" fill="#8DFA61"/>
    </g>
    <path d="M-0.000779152 21.5125V12.2081L6.38741 7.52441L12.7432 12.1766L-0.000779152 21.5125Z" fill="white"/>
    <path d="M-0.00107002 35.8455V26.541L16.2126 14.6904L22.5684 19.3426L-0.00107002 35.8455Z" fill="#0056F9"/>
    <path d="M32.4287 35.8465V26.5421L26.0081 21.8584L19.6523 26.5106L32.4287 35.8465Z" fill="#02E7FF"/>
    <path d="M6.875 35.8456H25.5531L16.2141 29.0244L6.875 35.8456Z" fill="white"/>
  </g>
</svg>