<svg xmlns="http://www.w3.org/2000/svg" width="101" height="42" viewBox="0 0 101 42" fill="none">
  <path d="M50.9695 13.8315L54.12 23.7046H54.2409L57.3977 13.8315H60.4527L55.9593 26.8264H52.4079L47.9082 13.8315H50.9695Z" fill="white"/>
  <path d="M63.6731 27.0104C63.0494 27.0104 62.4936 26.9025 62.0056 26.6868C61.5177 26.4668 61.1315 26.1432 60.8473 25.716C60.5672 25.2845 60.4272 24.7473 60.4272 24.1043C60.4272 23.5629 60.5269 23.1081 60.7263 22.7401C60.9258 22.3721 61.1973 22.076 61.541 21.8518C61.8847 21.6276 62.275 21.4584 62.7121 21.3442C63.1533 21.23 63.6158 21.1496 64.0995 21.1031C64.6681 21.0438 65.1263 20.9888 65.4743 20.9381C65.8222 20.8831 66.0747 20.8027 66.2316 20.697C66.3886 20.5912 66.4671 20.4347 66.4671 20.2274V20.1894C66.4671 19.7875 66.3398 19.4766 66.0853 19.2566C65.8349 19.0367 65.4785 18.9267 65.016 18.9267C64.5281 18.9267 64.1398 19.0345 63.8513 19.2503C63.5628 19.4618 63.3719 19.7283 63.2785 20.0498L60.7709 19.8467C60.8982 19.2545 61.1485 18.7427 61.5219 18.3112C61.8953 17.8755 62.3769 17.5413 62.9666 17.3087C63.5607 17.0718 64.248 16.9533 65.0287 16.9533C65.5719 16.9533 66.0916 17.0168 66.5881 17.1437C67.0887 17.2706 67.5321 17.4673 67.9182 17.7338C68.3086 18.0003 68.6162 18.3429 68.8411 18.7617C69.066 19.1763 69.1784 19.6733 69.1784 20.2528V26.8264H66.6071V25.4749H66.5308C66.3738 25.7794 66.1638 26.048 65.9007 26.2807C65.6376 26.5091 65.3215 26.6889 64.9524 26.82C64.5832 26.9469 64.1568 27.0104 63.6731 27.0104ZM64.4496 25.1449C64.8484 25.1449 65.2006 25.0666 65.5061 24.9101C65.8116 24.7494 66.0513 24.5337 66.2253 24.2629C66.3992 23.9922 66.4862 23.6855 66.4862 23.3429V22.3086C66.4014 22.3636 66.2847 22.4144 66.1362 22.4609C65.9919 22.5032 65.8286 22.5434 65.6461 22.5815C65.4637 22.6153 65.2812 22.647 65.0988 22.6766C64.9163 22.702 64.7508 22.7253 64.6023 22.7464C64.2841 22.793 64.0062 22.867 63.7686 22.9685C63.531 23.07 63.3464 23.2075 63.2149 23.381C63.0833 23.5502 63.0176 23.7617 63.0176 24.0155C63.0176 24.3835 63.1512 24.6648 63.4185 24.8594C63.6901 25.0497 64.0338 25.1449 64.4496 25.1449Z" fill="white"/>
  <path d="M73.9932 13.8315V26.8264H71.2819V13.8315H73.9932Z" fill="white"/>
  <path d="M78.8763 13.8315V26.8264H76.1651V13.8315H78.8763Z" fill="white"/>
  <path d="M85.5034 27.0167C84.4978 27.0167 83.6322 26.8137 82.9067 26.4076C82.1854 25.9973 81.6295 25.4177 81.2392 24.669C80.8488 23.9161 80.6536 23.0256 80.6536 21.9977C80.6536 20.9952 80.8488 20.1153 81.2392 19.3581C81.6295 18.601 82.179 18.0109 82.8876 17.5879C83.6004 17.1648 84.4363 16.9533 85.3952 16.9533C86.0401 16.9533 86.6405 17.057 87.1964 17.2643C87.7564 17.4673 88.2444 17.774 88.6602 18.1843C89.0802 18.5946 89.407 19.1107 89.6403 19.7325C89.8737 20.3501 89.9904 21.0734 89.9904 21.9025V22.6449H81.7356V20.9698H87.4382C87.4382 20.5806 87.3533 20.2359 87.1836 19.9356C87.0139 19.6352 86.7784 19.4004 86.4772 19.2312C86.1802 19.0578 85.8344 18.9711 85.4398 18.9711C85.0282 18.9711 84.6633 19.0663 84.3451 19.2566C84.0311 19.4428 83.785 19.6944 83.6068 20.0117C83.4286 20.3247 83.3373 20.6737 83.3331 21.0586V22.6513C83.3331 23.1335 83.4222 23.5502 83.6004 23.9013C83.7829 24.2524 84.0396 24.5231 84.3705 24.7134C84.7015 24.9038 85.0939 24.999 85.5479 24.999C85.8492 24.999 86.125 24.9567 86.3753 24.8721C86.6257 24.7875 86.8399 24.6606 87.0182 24.4914C87.1964 24.3222 87.3321 24.1149 87.4255 23.8695L89.9331 24.0345C89.8058 24.6352 89.5449 25.1597 89.1503 25.6081C88.7599 26.0523 88.255 26.3991 87.6355 26.6487C87.0203 26.894 86.3096 27.0167 85.5034 27.0167Z" fill="white"/>
  <path d="M94.471 21.1919V26.8264H91.7597V17.0802H94.3437V18.7998H94.4583C94.6747 18.2329 95.0374 17.7846 95.5466 17.4546C96.0558 17.1204 96.6731 16.9533 97.3987 16.9533C98.0776 16.9533 98.6695 17.1014 99.1744 17.3975C99.6793 17.6936 100.072 18.1166 100.352 18.6665C100.632 19.2122 100.772 19.8636 100.772 20.6208V26.8264H98.0606V21.1031C98.0648 20.5066 97.9121 20.0413 97.6023 19.7071C97.2926 19.3687 96.8662 19.1995 96.3231 19.1995C95.9582 19.1995 95.6357 19.2778 95.3557 19.4343C95.0799 19.5908 94.8635 19.8192 94.7065 20.1196C94.5537 20.4157 94.4752 20.7731 94.471 21.1919Z" fill="white"/>
  <path d="M57.3032 33.0843C57.2141 32.7778 57.089 32.5071 56.9279 32.272C56.7667 32.0328 56.5695 31.8313 56.3363 31.6676C56.1072 31.4997 55.8443 31.3716 55.5474 31.2835C55.2548 31.1954 54.9304 31.1513 54.5741 31.1513C53.9083 31.1513 53.323 31.315 52.8184 31.6424C52.3179 31.9698 51.9278 32.4462 51.6479 33.0717C51.368 33.6929 51.228 34.4527 51.228 35.3509C51.228 36.2492 51.3658 37.0132 51.6415 37.6428C51.9172 38.2724 52.3073 38.7531 52.812 39.0847C53.3167 39.4121 53.9125 39.5758 54.5996 39.5758C55.223 39.5758 55.7552 39.4666 56.1963 39.2484C56.6416 39.0259 56.9809 38.7132 57.2141 38.3102C57.4516 37.9072 57.5704 37.4308 57.5704 36.8809L58.1302 36.9628H54.7713V34.9102H60.2231V36.5346C60.2231 37.668 59.9814 38.6418 59.4979 39.4561C59.0144 40.2663 58.3486 40.8917 57.5004 41.3325C56.6522 41.769 55.681 41.9873 54.5869 41.9873C53.3655 41.9873 52.2925 41.7207 51.368 41.1876C50.4434 40.6504 49.7225 39.8885 49.2051 38.9021C48.6919 37.9114 48.4353 36.7361 48.4353 35.3761C48.4353 34.3309 48.588 33.3991 48.8934 32.5805C49.2029 31.7578 49.6355 31.061 50.1911 30.4902C50.7467 29.9193 51.3934 29.4848 52.1313 29.1868C52.8693 28.8888 53.6687 28.7398 54.5296 28.7398C55.2675 28.7398 55.9546 28.8468 56.5907 29.0609C57.2269 29.2708 57.7909 29.5688 58.2829 29.955C58.7791 30.3411 59.1841 30.8008 59.4979 31.3339C59.8117 31.8628 60.0132 32.4462 60.1022 33.0843H57.3032Z" fill="white"/>
  <path d="M66.6943 41.9999C65.6892 41.9999 64.824 41.7984 64.0988 41.3954C63.3778 40.9883 62.8223 40.4132 62.4321 39.6702C62.0419 38.9231 61.8469 38.0395 61.8469 37.0195C61.8469 36.0246 62.0419 35.1516 62.4321 34.4002C62.8223 33.6488 63.3715 33.0633 64.0797 32.6435C64.7922 32.2238 65.6277 32.0139 66.5861 32.0139C67.2308 32.0139 67.8309 32.1167 68.3864 32.3224C68.9462 32.5239 69.4339 32.8282 69.8496 33.2354C70.2694 33.6425 70.596 34.1546 70.8292 34.7717C71.0625 35.3845 71.1791 36.1023 71.1791 36.925V37.6617H62.9283V35.9995H68.6282C68.6282 35.6133 68.5433 35.2712 68.3737 34.9732C68.2041 34.6751 67.9687 34.4422 67.6676 34.2743C67.3707 34.1022 67.0251 34.0161 66.6307 34.0161C66.2193 34.0161 65.8546 34.1106 65.5365 34.2994C65.2227 34.4841 64.9767 34.7339 64.7986 35.0487C64.6205 35.3593 64.5293 35.7056 64.525 36.0876V37.668C64.525 38.1465 64.6141 38.56 64.7922 38.9084C64.9746 39.2568 65.2311 39.5254 65.5619 39.7143C65.8927 39.9032 66.285 39.9976 66.7388 39.9976C67.0399 39.9976 67.3156 39.9557 67.5658 39.8717C67.816 39.7878 68.0302 39.6618 68.2083 39.4939C68.3864 39.326 68.5221 39.1203 68.6154 38.8769L71.1219 39.0406C70.9946 39.6366 70.7338 40.1571 70.3394 40.6021C69.9492 41.0428 69.4446 41.387 68.8254 41.6347C68.2104 41.8781 67.5001 41.9999 66.6943 41.9999Z" fill="white"/>
  <path d="M77.3624 41.9999C76.3743 41.9999 75.5197 41.7921 74.7988 41.3765C74.082 40.9568 73.5286 40.3733 73.1384 39.6261C72.7483 38.8748 72.5532 38.0038 72.5532 37.0132C72.5532 36.0142 72.7483 35.1411 73.1384 34.3939C73.5286 33.6425 74.082 33.0591 74.7988 32.6435C75.5197 32.2238 76.3743 32.0139 77.3624 32.0139C78.3506 32.0139 79.203 32.2238 79.9197 32.6435C80.6407 33.0591 81.1963 33.6425 81.5864 34.3939C81.9766 35.1411 82.1717 36.0142 82.1717 37.0132C82.1717 38.0038 81.9766 38.8748 81.5864 39.6261C81.1963 40.3733 80.6407 40.9568 79.9197 41.3765C79.203 41.7921 78.3506 41.9999 77.3624 41.9999ZM77.3752 39.9221C77.8247 39.9221 78.2 39.7962 78.5011 39.5443C78.8022 39.2882 79.0291 38.9398 79.1818 38.4991C79.3387 38.0584 79.4172 37.5568 79.4172 36.9943C79.4172 36.4318 79.3387 35.9302 79.1818 35.4895C79.0291 35.0487 78.8022 34.7003 78.5011 34.4443C78.2 34.1882 77.8247 34.0602 77.3752 34.0602C76.9214 34.0602 76.5397 34.1882 76.2301 34.4443C75.9247 34.7003 75.6936 35.0487 75.5367 35.4895C75.384 35.9302 75.3077 36.4318 75.3077 36.9943C75.3077 37.5568 75.384 38.0584 75.5367 38.4991C75.6936 38.9398 75.9247 39.2882 76.2301 39.5443C76.5397 39.7962 76.9214 39.9221 77.3752 39.9221Z" fill="white"/>
  <mask id="mask0_812_9473" style="mask-type:alpha" maskUnits="userSpaceOnUse" x="0" y="0" width="38" height="42">
    <rect x="0.244141" width="37.7356" height="42" fill="#D9D9D9"/>
  </mask>
  <g mask="url(#mask0_812_9473)">
    <mask id="mask1_812_9473" style="mask-type:alpha" maskUnits="userSpaceOnUse" x="1" y="-3" width="37" height="29">
      <path d="M37.9803 25.0512V14.0494L19.1125 -0.000145197L1.15039 -2.37891L37.9803 25.0512Z" fill="#6A68F0"/>
    </mask>
    <g mask="url(#mask1_812_9473)">
      <path d="M0.245117 14.0496L19.1129 0L37.9807 14.0496V42H0.245117V14.0496Z" fill="#8DFA61"/>
    </g>
    <path d="M0.243155 25.0515V14.0498L7.67707 8.51172L15.0732 14.0126L0.243155 25.0515Z" fill="white"/>
    <path d="M0.244816 42V30.9982L19.1126 16.9858L26.5088 22.4867L0.244816 42Z" fill="#0056F9"/>
    <path d="M37.9801 41.9998V30.998L30.5085 25.46L23.1123 30.9608L37.9801 41.9998Z" fill="#02E7FF"/>
    <path d="M8.24414 42.0001H29.9798L19.112 33.9346L8.24414 42.0001Z" fill="white"/>
  </g>
</svg>