<svg width="274" height="50" viewBox="0 0 274 50" fill="none" xmlns="http://www.w3.org/2000/svg">
<path d="M61.5466 16.2777L69.3736 40.8815H69.6741L77.5169 16.2777H85.1068L73.9434 48.6611H65.1202L53.9409 16.2777H61.5466Z" fill="#1D1D1D"/>
<path d="M93.1078 49.1197C91.5582 49.1197 90.1773 48.8509 88.965 48.3133C87.7527 47.7651 86.7934 46.9587 86.0872 45.894C85.3914 44.8188 85.0436 43.48 85.0436 41.8777C85.0436 40.5284 85.2913 39.3952 85.7867 38.4781C86.2822 37.5609 86.9568 36.823 87.8107 36.2643C88.6646 35.7057 89.6344 35.284 90.7201 34.9994C91.8165 34.7148 92.9655 34.5145 94.1672 34.3985C95.5798 34.2509 96.7182 34.1139 97.5826 33.9874C98.447 33.8503 99.0743 33.6501 99.4643 33.3865C99.8543 33.123 100.049 32.733 100.049 32.2164V32.1215C100.049 31.1201 99.7331 30.3453 99.1006 29.7971C98.4787 29.249 97.5932 28.9749 96.4442 28.9749C95.2319 28.9749 94.2673 29.2437 93.5505 29.7813C92.8337 30.3084 92.3593 30.9725 92.1274 31.7737L85.8974 31.2677C86.2137 29.7919 86.8356 28.5164 87.7633 27.4411C88.6909 26.3554 89.8874 25.5226 91.3526 24.9428C92.8284 24.3525 94.5362 24.0573 96.4758 24.0573C97.8251 24.0573 99.1164 24.2154 100.35 24.5317C101.594 24.8479 102.695 25.3381 103.655 26.0022C104.624 26.6663 105.389 27.5202 105.947 28.5638C106.506 29.5969 106.785 30.8355 106.785 32.2797V48.6611H100.397V45.2931H100.207C99.8174 46.0521 99.2956 46.7215 98.6421 47.3013C97.9885 47.8705 97.2032 48.3185 96.286 48.6453C95.3689 48.9616 94.3095 49.1197 93.1078 49.1197ZM95.0369 44.4709C96.0278 44.4709 96.9027 44.2759 97.6617 43.8858C98.4207 43.4853 99.0163 42.9476 99.4485 42.273C99.8807 41.5983 100.097 40.8341 100.097 39.9802V37.4028C99.886 37.5399 99.5961 37.6664 99.2271 37.7823C98.8687 37.8877 98.4629 37.9879 98.0096 38.0828C97.5563 38.1671 97.103 38.2461 96.6497 38.3199C96.1964 38.3832 95.7853 38.4412 95.4164 38.4939C94.6258 38.6098 93.9353 38.7943 93.345 39.0473C92.7546 39.3003 92.2961 39.6429 91.9693 40.0751C91.6425 40.4967 91.4791 41.0238 91.4791 41.6563C91.4791 42.5734 91.8112 43.2744 92.4753 43.7593C93.15 44.2337 94.0038 44.4709 95.0369 44.4709Z" fill="#1D1D1D"/>
<path d="M118.747 16.2777V48.6611H112.011V16.2777H118.747Z" fill="#1D1D1D"/>
<path d="M130.879 16.2777V48.6611H124.143V16.2777H130.879Z" fill="#1D1D1D"/>
<path d="M147.344 49.1355C144.845 49.1355 142.695 48.6295 140.892 47.6175C139.1 46.595 137.719 45.1508 136.75 43.285C135.78 41.4086 135.295 39.1896 135.295 36.628C135.295 34.1297 135.78 31.9371 136.75 30.0501C137.719 28.1632 139.084 26.6927 140.845 25.6385C142.616 24.5844 144.693 24.0573 147.075 24.0573C148.677 24.0573 150.169 24.3156 151.55 24.8321C152.941 25.3381 154.153 26.1024 155.187 27.1249C156.23 28.1474 157.042 29.4335 157.622 30.9831C158.201 32.5221 158.491 34.3247 158.491 36.3908V38.2409H137.983V34.0664H152.151C152.151 33.0966 151.94 32.2375 151.518 31.4891C151.096 30.7406 150.511 30.1556 149.763 29.7339C149.025 29.3017 148.166 29.0856 147.186 29.0856C146.163 29.0856 145.256 29.3228 144.466 29.7971C143.686 30.261 143.074 30.8882 142.632 31.6788C142.189 32.4589 141.962 33.3285 141.952 34.2878V38.2567C141.952 39.4584 142.173 40.4968 142.616 41.3717C143.069 42.2466 143.707 42.9213 144.529 43.3957C145.351 43.87 146.326 44.1072 147.454 44.1072C148.203 44.1072 148.888 44.0018 149.51 43.791C150.132 43.5801 150.664 43.2639 151.107 42.8422C151.55 42.4206 151.887 41.904 152.119 41.2926L158.349 41.7038C158.033 43.2006 157.384 44.5078 156.404 45.6252C155.434 46.732 154.18 47.5964 152.641 48.2184C151.112 48.8298 149.347 49.1355 147.344 49.1355Z" fill="#1D1D1D"/>
<path d="M169.623 34.6199V48.6611H162.887V24.3736H169.307V28.6587H169.591C170.129 27.2461 171.03 26.1287 172.295 25.3065C173.56 24.4737 175.094 24.0573 176.897 24.0573C178.583 24.0573 180.054 24.4263 181.308 25.1642C182.563 25.9021 183.538 26.9562 184.234 28.3266C184.929 29.6865 185.277 31.3099 185.277 33.1968V48.6611H178.541V34.3985C178.552 32.9122 178.172 31.7526 177.403 30.9198C176.633 30.0765 175.574 29.6548 174.224 29.6548C173.318 29.6548 172.517 29.8499 171.821 30.2399C171.136 30.6299 170.598 31.1992 170.208 31.9476C169.829 32.6855 169.634 33.5763 169.623 34.6199Z" fill="#1D1D1D"/>
<path d="M212.186 26.7454C211.964 25.9759 211.653 25.2959 211.253 24.7056C210.852 24.1048 210.362 23.5988 209.782 23.1876C209.213 22.766 208.559 22.4445 207.821 22.2231C207.094 22.0017 206.288 21.891 205.402 21.891C203.747 21.891 202.292 22.3022 201.038 23.1244C199.794 23.9466 198.824 25.1431 198.129 26.7138C197.433 28.2739 197.085 30.1819 197.085 32.4378C197.085 34.6937 197.428 36.6122 198.113 38.1934C198.798 39.7747 199.768 40.9817 201.022 41.8144C202.277 42.6367 203.758 43.0478 205.465 43.0478C207.015 43.0478 208.338 42.7737 209.434 42.2256C210.541 41.6669 211.385 40.8815 211.964 39.8695C212.555 38.8576 212.85 37.6611 212.85 36.2802L214.241 36.4857H205.892V31.3309H219.443V35.4105C219.443 38.2567 218.843 40.7023 217.641 42.7474C216.439 44.7819 214.784 46.3525 212.676 47.4594C210.568 48.5557 208.154 49.1039 205.434 49.1039C202.398 49.1039 199.731 48.4345 197.433 47.0957C195.135 45.7464 193.343 43.8331 192.057 41.3559C190.781 38.8681 190.143 35.9165 190.143 32.501C190.143 29.8762 190.523 27.536 191.282 25.4804C192.051 23.4143 193.127 21.6644 194.508 20.2308C195.889 18.7971 197.496 17.7061 199.33 16.9576C201.165 16.2092 203.152 15.835 205.292 15.835C207.126 15.835 208.833 16.1038 210.415 16.6414C211.996 17.1685 213.398 17.9169 214.621 18.8867C215.854 19.8565 216.861 21.0108 217.641 22.3496C218.421 23.6778 218.922 25.1431 219.143 26.7454H212.186Z" fill="#1D1D1D"/>
<path d="M235.528 49.1355C233.03 49.1355 230.88 48.6295 229.077 47.6175C227.285 46.595 225.904 45.1508 224.934 43.285C223.964 41.4086 223.48 39.1896 223.48 36.628C223.48 34.1297 223.964 31.9371 224.934 30.0501C225.904 28.1632 227.269 26.6927 229.03 25.6385C230.801 24.5844 232.877 24.0573 235.26 24.0573C236.862 24.0573 238.354 24.3156 239.734 24.8321C241.126 25.3381 242.338 26.1024 243.371 27.1249C244.415 28.1474 245.227 29.4335 245.806 30.9831C246.386 32.5221 246.676 34.3247 246.676 36.3908V38.2409H226.168V34.0664H240.335C240.335 33.0966 240.125 32.2375 239.703 31.4891C239.281 30.7406 238.696 30.1556 237.948 29.7339C237.21 29.3017 236.351 29.0856 235.37 29.0856C234.348 29.0856 233.441 29.3228 232.651 29.7971C231.871 30.261 231.259 30.8882 230.816 31.6788C230.374 32.4589 230.147 33.3285 230.136 34.2878V38.2567C230.136 39.4584 230.358 40.4968 230.801 41.3717C231.254 42.2466 231.892 42.9213 232.714 43.3957C233.536 43.87 234.511 44.1072 235.639 44.1072C236.388 44.1072 237.073 44.0018 237.695 43.791C238.317 43.5801 238.849 43.2639 239.292 42.8422C239.734 42.4206 240.072 41.904 240.304 41.2926L246.534 41.7038C246.218 43.2006 245.569 44.5078 244.589 45.6252C243.619 46.732 242.365 47.5964 240.826 48.2184C239.297 48.8298 237.531 49.1355 235.528 49.1355Z" fill="#1D1D1D"/>
<path d="M262.046 49.1355C259.589 49.1355 257.465 48.6137 255.673 47.5701C253.892 46.5159 252.516 45.0507 251.546 43.1743C250.576 41.2874 250.092 39.1 250.092 36.6122C250.092 34.1033 250.576 31.9107 251.546 30.0343C252.516 28.1474 253.892 26.6821 255.673 25.6385C257.465 24.5844 259.589 24.0573 262.046 24.0573C264.502 24.0573 266.621 24.5844 268.402 25.6385C270.194 26.6821 271.575 28.1474 272.545 30.0343C273.515 31.9107 274 34.1033 274 36.6122C274 39.1 273.515 41.2874 272.545 43.1743C271.575 45.0507 270.194 46.5159 268.402 47.5701C266.621 48.6137 264.502 49.1355 262.046 49.1355ZM262.077 43.9175C263.195 43.9175 264.127 43.6012 264.876 42.9687C265.624 42.3257 266.188 41.4508 266.568 40.3439C266.958 39.237 267.153 37.9773 267.153 36.5648C267.153 35.1522 266.958 33.8925 266.568 32.7857C266.188 31.6788 265.624 30.8039 264.876 30.1608C264.127 29.5178 263.195 29.1963 262.077 29.1963C260.949 29.1963 260.001 29.5178 259.231 30.1608C258.472 30.8039 257.897 31.6788 257.507 32.7857C257.128 33.8925 256.938 35.1522 256.938 36.5648C256.938 37.9773 257.128 39.237 257.507 40.3439C257.897 41.4508 258.472 42.3257 259.231 42.9687C260.001 43.6012 260.949 43.9175 262.077 43.9175Z" fill="#1D1D1D"/>
<mask id="mask0_812_13521" style="mask-type:alpha" maskUnits="userSpaceOnUse" x="0" y="0" width="44" height="49">
<rect width="43.0631" height="48.6613" fill="#D9D9D9"/>
</mask>
<g mask="url(#mask0_812_13521)">
<mask id="mask1_812_13521" style="mask-type:alpha" maskUnits="userSpaceOnUse" x="1" y="-3" width="43" height="33">
<path d="M43.0637 29.0247V16.278L21.5322 0.000176907L1.03418 -2.75586L43.0637 29.0247Z" fill="#6A68F0"/>
</mask>
<g mask="url(#mask1_812_13521)">
<path d="M0.000488281 16.2778L21.532 0L43.0636 16.2778V48.6613H0.000488281V16.2778Z" fill="#8DFA61"/>
</g>
<path d="M-0.000200272 29.0254V16.2787L8.48322 9.8623L16.9236 16.2356L-0.000200272 29.0254Z" fill="#1D1D1D"/>
<path d="M0.000272751 48.6611V35.9145L21.5318 19.6797L29.9722 26.053L0.000272751 48.6611Z" fill="#0056F9"/>
<path d="M43.063 48.6611V35.9144L34.5366 29.498L26.0962 35.8714L43.063 48.6611Z" fill="#02E7FF"/>
<path d="M9.12964 48.6611H33.934L21.5318 39.3164L9.12964 48.6611Z" fill="#1D1D1D"/>
</g>
</svg>
