<svg width="24" height="24" viewBox="0 0 24 24" fill="none" xmlns="http://www.w3.org/2000/svg">
<g id="lucide:circle-slash">
<g id="Group">
<path id="Vector" d="M7.5 16C7.5 16.2761 7.72386 16.5 8 16.5H12.5C12.7761 16.5 13 16.2761 13 16C13 15.7239 12.7761 15.5 12.5 15.5H8.5V11.5C8.5 11.2239 8.27614 11 8 11C7.72386 11 7.5 11.2239 7.5 11.5V16ZM16.5 8C16.5 7.72386 16.2761 7.5 16 7.5H11.5C11.2239 7.5 11 7.72386 11 8C11 8.27614 11.2239 8.5 11.5 8.5H15.5V12.5C15.5 12.7761 15.7239 13 16 13C16.2761 13 16.5 12.7761 16.5 12.5V8ZM8.35355 16.3536L16.3536 8.35355L15.6464 7.64645L7.64645 15.6464L8.35355 16.3536Z" fill="black"/>
<path id="Vector_2" d="M12 22C17.5228 22 22 17.5228 22 12C22 6.47715 17.5228 2 12 2C6.47715 2 2 6.47715 2 12C2 17.5228 6.47715 22 12 22Z" stroke="black" stroke-width="1.5" stroke-linecap="round" stroke-linejoin="round"/>
</g>
</g>
</svg>
